<?xml version="1.0" encoding="UTF-8"?>
<svg data-name="Layer 1" xmlns="http://www.w3.org/2000/svg" xmlns:xlink="http://www.w3.org/1999/xlink" viewBox="0 0 136 136">
  <defs>
    <linearGradient id="x0fc8ti7" x1=".99" y1="67" x2="135.99" y2="67" gradientUnits="userSpaceOnUse">
      <stop offset=".15" stop-color="#ff0"/>
      <stop offset=".64" stop-color="#f15a24"/>
    </linearGradient>
    <linearGradient x1="13.18" y1="69.41" x2="104.45" y2="69.41" gradientUnits="userSpaceOnUse">
      <stop offset=".15" stop-color="#ff0"/>
      <stop offset=".64" stop-color="#f15a24"/>
    </linearGradient>
  </defs>
  <ellipse cx="68" cy="67" rx="67.5" ry="66.5" style="fill: url(#x0fc8ti7); stroke: red; stroke-miterlimit: 10;"/>
  <rect x="23.63" y="39.92" width="66.06" height="46.01" style="fill: none;"/>
  <g>
    <path d="M24.37,62.01c.58,1.81,1.25,3.77,2.02,5.91.77,2.13,1.68,4.28,2.74,6.45,1.06,2.17,2.25,4.27,3.57,6.31,1.33,2.04,2.84,3.84,4.55,5.42,1.71,1.58,3.6,2.83,5.67,3.77s4.38,1.41,6.91,1.41,4.61-.37,6.34-1.1c1.73-.73,3.13-1.71,4.21-2.94,1.08-1.23,1.85-2.67,2.33-4.32.48-1.65.72-3.38.72-5.19,0-3.96-1.43-7.05-4.29-9.28-2.86-2.23-7-3.34-12.42-3.34-.65,0-1.31.02-1.96.06-.65.04-1.31.1-1.96.17v-8.76c.31.04.58.06.83.06h.43c2.69,0,5.08-.34,7.17-1.01,2.09-.67,3.85-1.58,5.27-2.74,1.42-1.15,2.5-2.5,3.23-4.03.73-1.54,1.09-3.15,1.09-4.84,0-1.54-.27-2.9-.81-4.09-.54-1.19-1.27-2.19-2.19-3s-2.02-1.41-3.28-1.81-2.65-.6-4.15-.6c-1.04,0-2.04.07-3,.2-.96.14-1.98.35-3.05.63-1.08.29-2.22.66-3.43,1.12-1.21.46-2.58,1.04-4.12,1.73l-3.28-7.89c3-1.46,5.88-2.56,8.64-3.31s5.59-1.12,8.47-1.12,5.33.44,7.69,1.33c2.36.88,4.4,2.1,6.11,3.66,1.71,1.56,3.04,3.41,4,5.56.96,2.15,1.44,4.48,1.44,6.97,0,6.88-3.28,12.41-9.85,16.59v.23c2.57,1.08,4.72,2.4,6.45,3.98,1.11.19,2.29.35,3.54.46s2.39.17,3.43.17,2.21-.08,3.4-.23c1.19-.15,2.41-.44,3.66-.86,1.25-.42,2.52-1.02,3.8-1.79,1.29-.77,2.58-1.77,3.89-3v-31.92h21.55v8.47h-12.1v77.44h-9.45v-43.79l-.23-.06c-2.19,1.46-4.25,2.42-6.17,2.88-1.92.46-3.9.69-5.93.69-.65,0-1.33-.03-2.02-.09s-1.4-.12-2.13-.2l-.06.23c.61,1.58.92,3.51.92,5.82,0,3.11-.52,5.99-1.56,8.64s-2.53,4.95-4.47,6.89c-1.94,1.94-4.28,3.45-7.03,4.52-2.75,1.08-5.83,1.61-9.25,1.61-3.65,0-6.94-.64-9.88-1.93-2.94-1.29-5.59-2.95-7.95-4.98-2.36-2.04-4.43-4.33-6.19-6.88-1.77-2.55-3.28-5.12-4.55-7.69s-2.3-5.02-3.11-7.35c-.81-2.32-1.4-4.25-1.79-5.79l7.55-3.46Z" style="fill: url(#c);"/>
    <path d="M24.37,62.01c.58,1.81,1.25,3.77,2.02,5.91.77,2.13,1.68,4.28,2.74,6.45,1.06,2.17,2.25,4.27,3.57,6.31,1.33,2.04,2.84,3.84,4.55,5.42,1.71,1.58,3.6,2.83,5.67,3.77s4.38,1.41,6.91,1.41,4.61-.37,6.34-1.1c1.73-.73,3.13-1.71,4.21-2.94,1.08-1.23,1.85-2.67,2.33-4.32.48-1.65.72-3.38.72-5.19,0-3.96-1.43-7.05-4.29-9.28-2.86-2.23-7-3.34-12.42-3.34-.65,0-1.31.02-1.96.06-.65.04-1.31.1-1.96.17v-8.76c.31.04.58.06.83.06h.43c2.69,0,5.08-.34,7.17-1.01,2.09-.67,3.85-1.58,5.27-2.74,1.42-1.15,2.5-2.5,3.23-4.03.73-1.54,1.09-3.15,1.09-4.84,0-1.54-.27-2.9-.81-4.09-.54-1.19-1.27-2.19-2.19-3s-2.02-1.41-3.28-1.81-2.65-.6-4.15-.6c-1.04,0-2.04.07-3,.2-.96.14-1.98.35-3.05.63-1.08.29-2.22.66-3.43,1.12-1.21.46-2.58,1.04-4.12,1.73l-3.28-7.89c3-1.46,5.88-2.56,8.64-3.31s5.59-1.12,8.47-1.12,5.33.44,7.69,1.33c2.36.88,4.4,2.1,6.11,3.66,1.71,1.56,3.04,3.41,4,5.56.96,2.15,1.44,4.48,1.44,6.97,0,6.88-3.28,12.41-9.85,16.59v.23c2.57,1.08,4.72,2.4,6.45,3.98,1.11.19,2.29.35,3.54.46s2.39.17,3.43.17,2.21-.08,3.4-.23c1.19-.15,2.41-.44,3.66-.86,1.25-.42,2.52-1.02,3.8-1.79,1.29-.77,2.58-1.77,3.89-3v-31.92h21.55v8.47h-12.1v77.44h-9.45v-43.79l-.23-.06c-2.19,1.46-4.25,2.42-6.17,2.88-1.92.46-3.9.69-5.93.69-.65,0-1.33-.03-2.02-.09s-1.4-.12-2.13-.2l-.06.23c.61,1.58.92,3.51.92,5.82,0,3.11-.52,5.99-1.56,8.64s-2.53,4.95-4.47,6.89c-1.94,1.94-4.28,3.45-7.03,4.52-2.75,1.08-5.83,1.61-9.25,1.61-3.65,0-6.94-.64-9.88-1.93-2.94-1.29-5.59-2.95-7.95-4.98-2.36-2.04-4.43-4.33-6.19-6.88-1.77-2.55-3.28-5.12-4.55-7.69s-2.3-5.02-3.11-7.35c-.81-2.32-1.4-4.25-1.79-5.79l7.55-3.46Z" style="fill: #1700aa; stroke: aqua; stroke-miterlimit: 10;"/>
  </g>
</svg>
